<svg xmlns="http://www.w3.org/2000/svg">
  <defs>
    <symbol id="icon-microphone" viewBox="0 0 16 18">
      <path d="M7.86774 11.003C7.00412 11.003 6.26271 10.7403 5.64351 10.2149C5.02431 9.68954 4.71472 9.06737 4.71472 8.34841V3.03921C4.71472 2.29261 5.02431 1.66352 5.64351 1.15196C6.26271 0.640395 7.00412 0.384613 7.86774 0.384613C8.73135 0.384613 9.46462 0.640395 10.0675 1.15196C10.6704 1.66352 10.9719 2.29261 10.9719 3.03921V8.34841C10.9719 9.06737 10.6704 9.68954 10.0675 10.2149C9.46462 10.7403 8.73135 11.003 7.86774 11.003ZM13.3672 8.34841H15.1759C15.1759 9.84163 14.5649 11.1482 13.3428 12.2681C12.1207 13.388 10.646 14.0586 8.91874 14.2798V17.1833H6.81673V14.2798C5.08949 14.0586 3.61482 13.3811 2.39272 12.2474C1.17062 11.1136 0.55957 9.81398 0.55957 8.34841H2.3194C2.3194 9.62041 2.87342 10.685 3.98145 11.5422C5.08949 12.3994 6.38492 12.8281 7.86774 12.8281C9.35055 12.8281 10.6378 12.3994 11.7296 11.5422C12.8213 10.685 13.3672 9.62041 13.3672 8.34841Z"/>
    </symbol>
    <symbol id="icon-spinner" viewBox="0 0 15 20">
      <path d="M0.0491975 10.7003C-0.0686153 9.64172 0.029562 8.61981 0.296604 7.67525C1.18413 4.53623 3.96844 2.22777 7.27112 2.18705V0.135087C7.27112 0.021089 7.40857 -0.0399815 7.49889 0.0292317L11.5713 3.13161C11.638 3.18454 11.638 3.29039 11.5713 3.33925L7.50282 6.44163C7.40857 6.51084 7.27505 6.44977 7.27505 6.33577V4.28788C5.10337 4.32452 3.24978 5.71285 2.45258 7.67525C2.15019 8.41624 1.99704 9.23458 2.04023 10.0936C2.09914 11.2743 2.52719 12.3614 3.20265 13.2408C3.56395 13.709 3.47755 14.393 3.01023 14.7472C2.56646 15.0851 1.94598 14.9915 1.60433 14.5436C0.767855 13.4607 0.210208 12.1415 0.0491975 10.7003ZM11.8069 6.7592C12.4863 7.63454 12.9144 8.72566 12.9693 9.90636C13.0125 10.7695 12.8554 11.5878 12.557 12.3247C11.7598 14.2871 9.9062 15.6796 7.73452 15.7121V13.6642C7.73452 13.5502 7.59707 13.4892 7.50675 13.5584L3.43435 16.6607C3.36759 16.7137 3.36759 16.8195 3.43435 16.8684L7.50282 19.9708C7.59707 20.04 7.73059 19.9789 7.73059 19.8649V17.8129C11.0333 17.7763 13.8215 15.4678 14.7051 12.3247C14.9721 11.3802 15.0664 10.3583 14.9525 9.29973C14.7954 7.85846 14.2378 6.53934 13.4013 5.45636C13.0557 5.00851 12.4392 4.91487 11.9954 5.25279C11.532 5.607 11.4456 6.29099 11.8069 6.7592Z" />
    </symbol>
    <symbol id="icon-cloud" viewBox="0 0 164 104">
      <path d="M54.0588 1.83557C69.7754 -1.60747 87.4481 5.72769 95.8797 21.2962C106.133 13.8113 120.972 15.0838 129.741 25.0386C133.316 29.0056 135.677 34.3199 136.217 40.0083C146.065 41.3556 155.508 47.7926 160.297 57.6726C164.345 65.906 164.547 76.3848 160.635 84.7678C155.238 96.519 143.502 103.63 131.765 103.63H32.6087C21.1417 103.63 9.3374 96.7436 3.94115 85.2169C-0.106034 76.9835 -0.106034 66.5047 3.94115 58.1217C7.78597 49.589 15.4082 43.4514 23.5025 40.9065C23.5025 34.3199 24.8516 27.7332 27.8195 22.0447C33.2158 11.3413 43.3337 4.08103 53.9913 1.83557H54.0588ZM110.315 52.9572C105.863 54.6038 102.558 59.3941 102.49 64.7084C98.7127 66.2054 95.2726 69.7232 95.2726 74.4387C95.0703 80.4266 100.264 84.9175 105.391 84.9175H137.094C139.454 84.9175 141.815 84.3187 143.839 82.672C147.211 80.4266 148.83 75.4866 147.346 71.4447C146.132 67.4778 142.625 65.2323 139.252 64.409C138.577 62.3881 137.903 60.2175 136.217 58.945C133.316 56.4002 129.202 56.4002 126.099 58.3462C122.726 52.8075 115.981 50.4871 110.315 52.8823V52.9572Z" fill="#E4E3E3" stroke="#E4E3E3" stroke-width="0.1"/>
      <path d="M109.715 53.3088C115.479 50.8137 122.425 53.1576 125.897 58.7527C129.162 56.7868 133.398 56.7868 136.315 59.3576C138.121 60.6429 138.816 62.8356 139.51 64.8771C142.983 65.6332 146.594 67.9015 147.845 71.9088C149.373 75.9917 147.636 80.9819 144.233 83.2502C142.149 84.9136 139.719 85.5185 137.288 85.5185H104.645C99.3662 85.5185 94.0182 80.9819 94.2266 74.9331C94.2266 70.1697 97.6993 66.6161 101.728 65.1039C101.728 59.8112 105.2 54.8966 109.715 53.1576V53.3088Z" fill="#ACA6A6" stroke="#ACA6A6" stroke-width="0.1"/>
    </symbol>
    <symbol id="icon-cloud-sun" viewBox="0 0 68 46">
      <path d="M7.75417 3.21371C12.6163 -0.0118243 19.1174 0.319773 23.7063 3.99749C19.3359 4.90185 15.2932 7.82593 13.0533 12.1367C11.8788 14.4277 11.3325 17.0805 11.3598 19.7333C8.02732 20.7582 4.968 23.2301 3.38371 26.6667C0.925323 23.0493 0.0239161 18.2863 0.843377 13.8851C1.66284 9.45377 4.2578 5.44446 7.78148 3.21371H7.75417Z" fill="#FF8841" stroke="#FF8841" stroke-width="0.1"/>
      <path d="M23.2894 3.78279C29.6532 2.38867 36.809 5.35874 40.223 11.6625C44.3745 8.63187 50.3832 9.14709 53.9338 13.1779C55.3814 14.7841 56.3373 16.9359 56.5558 19.2392C60.5434 19.7848 64.3671 22.3911 66.3063 26.3916C67.945 29.7254 68.0269 33.9683 66.4428 37.3627C64.2578 42.1209 59.5055 45 54.7532 45H14.6041C9.96102 45 5.18137 42.2118 2.99639 37.5445C1.35765 34.2108 1.35765 29.9678 2.99639 26.5735C4.55319 23.1185 7.63948 20.6334 10.917 19.6029C10.917 16.9359 11.4632 14.2689 12.6649 11.9656C14.8499 7.63175 18.9468 4.69199 23.2621 3.78279H23.2894ZM46.0679 24.4823C44.2653 25.1491 42.927 27.0887 42.8996 29.2405C41.3702 29.8466 39.9772 31.271 39.9772 33.1804C39.8953 35.6049 41.9983 37.4233 44.0741 37.4233H56.9108C57.8668 37.4233 58.8227 37.1809 59.6421 36.5141C61.0077 35.6049 61.6632 33.6047 61.0623 31.9681C60.5707 30.3618 59.1505 29.4526 57.7848 29.1192C57.5117 28.301 57.2386 27.4221 56.5558 26.9069C55.3814 25.8764 53.7153 25.8764 52.4589 26.6644C51.0933 24.4217 48.3621 23.4822 46.0679 24.452V24.4823Z" fill="#E4E3E3" stroke="#E4E3E3" stroke-width="0.1"/>
      <path d="M45.8249 24.6247C48.1591 23.6144 50.9713 24.5635 52.3774 26.829C53.6992 26.033 55.4146 26.033 56.5957 27.0739C57.3269 27.5944 57.6081 28.4822 57.8894 29.3088C59.2955 29.6149 60.7578 30.5334 61.264 32.156C61.8827 33.8092 61.1797 35.8298 59.8017 36.7482C58.958 37.4218 57.9737 37.6667 56.9895 37.6667H43.772C41.6347 37.6667 39.4693 35.8298 39.5537 33.3806C39.5537 31.4518 40.9598 30.0129 42.5909 29.4006C42.5909 27.2576 43.997 25.2676 45.8249 24.5635V24.6247Z" fill="#ACA6A6" stroke="#ACA6A6" stroke-width="0.1"/>
    </symbol>
  </defs>
</svg>